<?xml version="1.0" standalone="no"?>
<!DOCTYPE svg PUBLIC "-//W3C//DTD SVG 20010904//EN"
 "http://www.w3.org/TR/2001/REC-SVG-20010904/DTD/svg10.dtd">
<svg version="1.0" xmlns="http://www.w3.org/2000/svg"
 width="300.000000pt" height="300.000000pt" viewBox="0 0 300.000000 300.000000"
 preserveAspectRatio="xMidYMid meet">
<metadata>
Created by potrace 1.10, written by Peter Selinger 2001-2011
</metadata>
<g transform="translate(0.000000,300.000000) scale(0.100000,-0.100000)"
fill="#000000" stroke="none">
<path d="M1338 2919 c-299 -35 -610 -189 -816 -404 -317 -329 -444 -786 -350
-1255 28 -142 142 -386 232 -499 150 -188 302 -313 491 -405 33 -16 71 -35 85
-42 44 -21 184 -62 266 -78 269 -51 579 -14 817 97 94 44 264 150 317 196 155
138 259 268 339 425 29 57 53 110 54 118 2 7 8 27 14 43 6 17 15 39 19 50 4
11 7 23 6 27 -1 4 3 19 8 33 6 15 12 43 15 63 24 184 27 230 21 347 -12 260
-85 481 -232 701 -190 285 -507 493 -855 564 -116 24 -314 32 -431 19z m428
-43 c441 -96 790 -383 965 -793 69 -160 91 -263 96 -456 9 -278 -22 -437 -124
-645 -140 -285 -365 -498 -663 -629 -197 -87 -323 -113 -545 -113 -216 1 -426
48 -578 131 -10 6 -37 20 -60 31 -207 106 -442 347 -549 563 -101 203 -138
365 -138 598 0 110 5 161 26 292 11 74 56 199 106 299 135 271 331 468 601
603 127 64 286 116 394 129 26 3 50 7 52 10 11 11 351 -5 417 -20z"/>
<path d="M1365 2751 c-3 -2 -13 -6 -23 -6 -82 -9 -127 -17 -137 -25 -7 -6 -25
-11 -41 -12 -16 -1 -33 -5 -39 -9 -5 -4 -12 -7 -15 -6 -3 1 -36 -14 -75 -33
-38 -19 -72 -35 -75 -35 -6 -1 -70 -37 -120 -66 -46 -28 -145 -111 -198 -168
-46 -49 -145 -185 -155 -213 -4 -10 -11 -18 -17 -18 -5 0 -10 -6 -10 -12 0 -7
-18 -49 -40 -92 -22 -44 -40 -85 -40 -92 0 -7 -5 -25 -12 -41 -6 -15 -11 -31
-10 -35 1 -4 -3 -20 -9 -35 -12 -31 -14 -39 -26 -133 -10 -75 -9 -220 2 -300
4 -30 9 -64 11 -75 1 -11 3 -20 4 -20 2 0 4 -9 6 -20 7 -45 28 -113 50 -162 8
-17 14 -36 14 -43 0 -7 8 -24 18 -38 10 -15 24 -42 31 -59 8 -18 17 -33 22
-33 5 0 9 -5 9 -10 0 -25 99 -152 180 -231 97 -95 217 -179 325 -228 39 -18
78 -36 88 -42 10 -5 22 -7 27 -4 4 3 10 2 12 -3 4 -9 187 -54 248 -60 114 -11
269 -4 357 16 23 5 44 8 46 6 2 -3 17 2 33 11 16 8 36 15 45 15 15 0 53 15
149 57 45 20 166 90 203 117 75 54 213 199 265 276 70 105 80 121 89 140 3 8
15 35 26 60 20 47 55 142 63 172 13 54 15 65 19 88 2 14 7 41 11 60 10 59 12
244 2 257 -5 7 -5 14 2 18 6 3 7 11 3 18 -4 6 -8 25 -10 42 -2 16 -5 39 -7 50
-1 12 -6 26 -10 33 -4 7 -5 16 -1 21 3 5 0 13 -6 16 -5 4 -8 13 -5 21 3 7 1
16 -4 19 -6 4 -10 12 -10 20 0 8 -5 26 -12 42 -6 15 -12 30 -13 33 -68 201
-257 439 -440 556 -17 10 -32 21 -35 25 -10 11 -219 109 -234 109 -8 0 -18 5
-21 10 -4 6 -11 8 -16 4 -5 -3 -16 0 -24 6 -8 6 -19 9 -24 6 -5 -4 -12 -2 -15
2 -3 5 -19 9 -36 10 -17 0 -37 5 -43 10 -7 5 -25 8 -42 7 -16 -1 -34 1 -40 4
-13 7 -264 9 -270 2z m25 -21 c0 -5 -4 -10 -10 -10 -5 0 -10 5 -10 10 0 6 5
10 10 10 6 0 10 -4 10 -10z m40 0 c0 -5 -4 -10 -10 -10 -5 0 -10 5 -10 10 0 6
5 10 10 10 6 0 10 -4 10 -10z m40 0 c0 -5 -4 -10 -10 -10 -5 0 -10 5 -10 10 0
6 5 10 10 10 6 0 10 -4 10 -10z m40 0 c0 -5 -4 -10 -10 -10 -5 0 -10 5 -10 10
0 6 5 10 10 10 6 0 10 -4 10 -10z m40 0 c0 -5 -4 -10 -10 -10 -5 0 -10 5 -10
10 0 6 5 10 10 10 6 0 10 -4 10 -10z m40 0 c0 -5 -4 -10 -10 -10 -5 0 -10 5
-10 10 0 6 5 10 10 10 6 0 10 -4 10 -10z m40 0 c0 -5 -4 -10 -10 -10 -5 0 -10
5 -10 10 0 6 5 10 10 10 6 0 10 -4 10 -10z m-280 -10 c0 -5 -4 -10 -10 -10 -5
0 -10 5 -10 10 0 6 5 10 10 10 6 0 10 -4 10 -10z m320 0 c0 -5 -4 -10 -10 -10
-5 0 -10 5 -10 10 0 6 5 10 10 10 6 0 10 -4 10 -10z m40 0 c0 -5 -5 -10 -11
-10 -5 0 -7 5 -4 10 3 6 8 10 11 10 2 0 4 -4 4 -10z m-440 -10 c0 -5 -4 -10
-10 -10 -5 0 -10 5 -10 10 0 6 5 10 10 10 6 0 10 -4 10 -10z m480 0 c0 -5 -4
-10 -10 -10 -5 0 -10 5 -10 10 0 6 5 10 10 10 6 0 10 -4 10 -10z m-520 -10 c0
-5 -4 -10 -10 -10 -5 0 -10 5 -10 10 0 6 5 10 10 10 6 0 10 -4 10 -10z m423
-7 c7 -4 32 -8 57 -9 25 0 53 -4 63 -7 9 -4 24 -9 32 -12 10 -3 13 -14 10 -37
-3 -24 -3 -26 3 -10 8 27 5 26 56 16 32 -5 71 -23 114 -49 3 -3 -48 -327 -54
-336 -2 -4 0 -10 5 -13 16 -10 89 300 77 330 -8 20 5 17 37 -9 l27 -23 -20
-89 c-23 -104 -23 -108 -11 -101 5 4 13 25 17 49 l8 42 8 -30 c6 -24 6 -21 3
15 -2 25 -1 60 3 78 l7 33 38 -28 c145 -107 199 -162 305 -307 32 -45 40 -62
23 -52 -10 7 -120 -159 -145 -217 -8 -21 -25 -51 -36 -68 -12 -16 -17 -29 -12
-29 5 0 21 17 35 37 33 47 35 32 3 -22 -57 -95 -97 -168 -93 -171 10 -10 137
214 137 241 0 3 7 19 15 35 8 16 15 32 15 35 0 3 0 9 0 14 0 5 14 24 32 42 17
19 39 47 48 62 l18 29 31 -61 c28 -56 70 -176 102 -296 15 -54 17 -181 6 -311
-40 -464 -379 -858 -845 -981 -84 -22 -119 -26 -262 -27 -190 -1 -262 12 -426
75 -245 95 -470 302 -591 544 -128 255 -150 581 -57 851 63 184 127 286 283
448 36 38 64 71 61 73 -3 3 15 16 40 29 25 13 50 30 55 38 15 20 110 74 143
82 15 4 55 20 90 36 34 15 75 30 91 32 15 2 34 7 41 11 14 8 40 11 183 19 44
3 81 7 84 9 7 7 133 -2 146 -10z m137 7 c0 -5 -4 -10 -10 -10 -5 0 -10 5 -10
10 0 6 5 10 10 10 6 0 10 -4 10 -10z m-600 -10 c0 -5 -4 -10 -10 -10 -5 0 -10
5 -10 10 0 6 5 10 10 10 6 0 10 -4 10 -10z m640 0 c0 -5 -4 -10 -10 -10 -5 0
-10 5 -10 10 0 6 5 10 10 10 6 0 10 -4 10 -10z m-680 -16 c0 -8 -5 -12 -10 -9
-6 4 -8 11 -5 16 9 14 15 11 15 -7z m720 6 c0 -5 -4 -10 -10 -10 -5 0 -10 5
-10 10 0 6 5 10 10 10 6 0 10 -4 10 -10z m-760 -20 c0 -5 -2 -10 -4 -10 -3 0
-8 5 -11 10 -3 6 -1 10 4 10 6 0 11 -4 11 -10z m800 6 c0 -3 -4 -8 -10 -11 -5
-3 -10 -1 -10 4 0 6 5 11 10 11 6 0 10 -2 10 -4z m-835 -16 c3 -5 1 -10 -4
-10 -6 0 -11 5 -11 10 0 6 2 10 4 10 3 0 8 -4 11 -10z m865 0 c0 -5 -5 -10
-11 -10 -5 0 -7 5 -4 10 3 6 8 10 11 10 2 0 4 -4 4 -10z m-900 -14 c0 -3 -4
-8 -10 -11 -5 -3 -10 -1 -10 4 0 6 5 11 10 11 6 0 10 -2 10 -4z m940 -6 c0 -5
-4 -10 -10 -10 -5 0 -10 5 -10 10 0 6 5 10 10 10 6 0 10 -4 10 -10z m-980 -10
c0 -5 -5 -10 -11 -10 -5 0 -7 5 -4 10 3 6 8 10 11 10 2 0 4 -4 4 -10z m1015 1
c3 -5 1 -12 -5 -16 -5 -3 -10 1 -10 9 0 18 6 21 15 7z m-1050 -21 c3 -5 1 -10
-4 -10 -6 0 -11 5 -11 10 0 6 2 10 4 10 3 0 8 -4 11 -10z m1090 0 c3 -5 -1
-10 -10 -10 -9 0 -13 5 -10 10 3 6 8 10 10 10 2 0 7 -4 10 -10z m-1125 -20 c0
-5 -4 -10 -10 -10 -5 0 -10 5 -10 10 0 6 5 10 10 10 6 0 10 -4 10 -10z m1160
0 c0 -5 -4 -10 -10 -10 -5 0 -10 5 -10 10 0 6 5 10 10 10 6 0 10 -4 10 -10z
m-1195 -20 c3 -5 -1 -10 -10 -10 -9 0 -13 5 -10 10 3 6 8 10 10 10 2 0 7 -4
10 -10z m1230 0 c3 -5 -1 -10 -10 -10 -9 0 -13 5 -10 10 3 6 8 10 10 10 2 0 7
-4 10 -10z m-1265 -26 c0 -8 -5 -12 -10 -9 -6 4 -8 11 -5 16 9 14 15 11 15 -7z
m1300 2 c0 -3 -4 -8 -10 -11 -5 -3 -10 -1 -10 4 0 6 5 11 10 11 6 0 10 -2 10
-4z m-1330 -26 c0 -5 -4 -10 -10 -10 -5 0 -10 5 -10 10 0 6 5 10 10 10 6 0 10
-4 10 -10z m1360 0 c0 -5 -4 -10 -10 -10 -5 0 -10 5 -10 10 0 6 5 10 10 10 6
0 10 -4 10 -10z m-1395 -20 c3 -5 1 -10 -4 -10 -6 0 -11 5 -11 10 0 6 2 10 4
10 3 0 8 -4 11 -10z m1430 0 c3 -5 -1 -10 -10 -10 -9 0 -13 5 -10 10 3 6 8 10
10 10 2 0 7 -4 10 -10z m-1465 -30 c0 -5 -2 -10 -4 -10 -3 0 -8 5 -11 10 -3 6
-1 10 4 10 6 0 11 -4 11 -10z m1500 6 c0 -3 -4 -8 -10 -11 -5 -3 -10 -1 -10 4
0 6 5 11 10 11 6 0 10 -2 10 -4z m-1530 -32 c0 -8 -5 -12 -10 -9 -6 4 -8 11
-5 16 9 14 15 11 15 -7z m1555 7 c3 -5 1 -12 -5 -16 -5 -3 -10 1 -10 9 0 18 6
21 15 7z m-1580 -31 c3 -5 -1 -10 -10 -10 -9 0 -13 5 -10 10 3 6 8 10 10 10 2
0 7 -4 10 -10z m1610 0 c3 -5 -1 -10 -10 -10 -9 0 -13 5 -10 10 3 6 8 10 10
10 2 0 7 -4 10 -10z m-1640 -30 c3 -5 1 -10 -4 -10 -6 0 -11 5 -11 10 0 6 2
10 4 10 3 0 8 -4 11 -10z m1665 0 c0 -5 -5 -10 -11 -10 -5 0 -7 5 -4 10 3 6 8
10 11 10 2 0 4 -4 4 -10z m-1690 -30 c0 -5 -4 -10 -10 -10 -5 0 -10 5 -10 10
0 6 5 10 10 10 6 0 10 -4 10 -10z m1720 0 c0 -5 -4 -10 -10 -10 -5 0 -10 5
-10 10 0 6 5 10 10 10 6 0 10 -4 10 -10z m-1750 -30 c0 -5 -4 -10 -10 -10 -5
0 -10 5 -10 10 0 6 5 10 10 10 6 0 10 -4 10 -10z m1780 0 c0 -5 -4 -10 -10
-10 -5 0 -10 5 -10 10 0 6 5 10 10 10 6 0 10 -4 10 -10z m-1805 -30 c3 -5 1
-10 -4 -10 -6 0 -11 5 -11 10 0 6 2 10 4 10 3 0 8 -4 11 -10z m1830 0 c3 -5
-1 -10 -10 -10 -9 0 -13 5 -10 10 3 6 8 10 10 10 2 0 7 -4 10 -10z m-1855 -40
c0 -5 -2 -10 -4 -10 -3 0 -8 5 -11 10 -3 6 -1 10 4 10 6 0 11 -4 11 -10z
m1880 6 c0 -3 -4 -8 -10 -11 -5 -3 -10 -1 -10 4 0 6 5 11 10 11 6 0 10 -2 10
-4z m-1900 -36 c0 -5 -4 -10 -10 -10 -5 0 -10 5 -10 10 0 6 5 10 10 10 6 0 10
-4 10 -10z m1920 0 c0 -5 -4 -10 -10 -10 -5 0 -10 5 -10 10 0 6 5 10 10 10 6
0 10 -4 10 -10z m-1945 -30 c3 -5 1 -10 -4 -10 -6 0 -11 5 -11 10 0 6 2 10 4
10 3 0 8 -4 11 -10z m1965 0 c0 -5 -5 -10 -11 -10 -5 0 -7 5 -4 10 3 6 8 10
11 10 2 0 4 -4 4 -10z m-1980 -34 c0 -3 -4 -8 -10 -11 -5 -3 -10 -1 -10 4 0 6
5 11 10 11 6 0 10 -2 10 -4z m2010 0 c0 -11 -19 -15 -25 -6 -3 5 1 10 9 10 9
0 16 -2 16 -4z m-2035 -36 c3 -5 1 -10 -4 -10 -6 0 -11 5 -11 10 0 6 2 10 4
10 3 0 8 -4 11 -10z m2050 0 c3 -5 -1 -10 -10 -10 -9 0 -13 5 -10 10 3 6 8 10
10 10 2 0 7 -4 10 -10z m-2065 -40 c0 -5 -4 -10 -10 -10 -5 0 -10 5 -10 10 0
6 5 10 10 10 6 0 10 -4 10 -10z m2080 0 c0 -5 -4 -10 -10 -10 -5 0 -10 5 -10
10 0 6 5 10 10 10 6 0 10 -4 10 -10z m-2100 -40 c0 -5 -2 -10 -4 -10 -3 0 -8
5 -11 10 -3 6 -1 10 4 10 6 0 11 -4 11 -10z m-15 -30 c3 -5 -1 -10 -10 -10 -9
0 -13 5 -10 10 3 6 8 10 10 10 2 0 7 -4 10 -10z m2150 0 c3 -5 -1 -10 -10 -10
-9 0 -13 5 -10 10 3 6 8 10 10 10 2 0 7 -4 10 -10z m-2165 -40 c0 -5 -4 -10
-10 -10 -5 0 -10 5 -10 10 0 6 5 10 10 10 6 0 10 -4 10 -10z m2180 0 c0 -5 -4
-10 -10 -10 -5 0 -10 5 -10 10 0 6 5 10 10 10 6 0 10 -4 10 -10z m-2190 -40
c0 -5 -4 -10 -10 -10 -5 0 -10 5 -10 10 0 6 5 10 10 10 6 0 10 -4 10 -10z
m2200 0 c0 -5 -4 -10 -10 -10 -5 0 -10 5 -10 10 0 6 5 10 10 10 6 0 10 -4 10
-10z m-2210 -34 c0 -11 -19 -15 -25 -6 -3 5 1 10 9 10 9 0 16 -2 16 -4z m2230
0 c0 -11 -19 -15 -25 -6 -3 5 1 10 9 10 9 0 16 -2 16 -4z m4 -47 c-3 -5 -10
-7 -15 -3 -5 3 -7 10 -3 15 3 5 10 7 15 3 5 -3 7 -10 3 -15z m-2244 7 c0 -11
-19 -15 -25 -6 -3 5 1 10 9 10 9 0 16 -2 16 -4z m-16 -47 c-3 -5 -10 -7 -15
-3 -5 3 -7 10 -3 15 3 5 10 7 15 3 5 -3 7 -10 3 -15z m2270 0 c-3 -5 -10 -7
-15 -3 -5 3 -7 10 -3 15 3 5 10 7 15 3 5 -3 7 -10 3 -15z m-2279 -28 c3 -5 1
-12 -5 -16 -5 -3 -10 1 -10 9 0 18 6 21 15 7z m2285 -7 c0 -8 -5 -12 -10 -9
-6 4 -8 11 -5 16 9 14 15 11 15 -7z m-2290 -44 c0 -5 -2 -10 -4 -10 -3 0 -8 5
-11 10 -3 6 -1 10 4 10 6 0 11 -4 11 -10z m2300 6 c0 -3 -4 -8 -10 -11 -5 -3
-10 -1 -10 4 0 6 5 11 10 11 6 0 10 -2 10 -4z m-2305 -35 c3 -5 1 -12 -5 -16
-5 -3 -10 1 -10 9 0 18 6 21 15 7z m2305 -7 c0 -8 -5 -12 -10 -9 -6 4 -8 11
-5 16 9 14 15 11 15 -7z m-2310 -40 c0 -8 -5 -12 -10 -9 -6 4 -8 11 -5 16 9
14 15 11 15 -7z m2320 2 c0 -3 -4 -8 -10 -11 -5 -3 -10 -1 -10 4 0 6 5 11 10
11 6 0 10 -2 10 -4z m-2320 -46 c0 -5 -4 -10 -10 -10 -5 0 -10 5 -10 10 0 6 5
10 10 10 6 0 10 -4 10 -10z m2320 0 c0 -5 -4 -10 -10 -10 -5 0 -10 5 -10 10 0
6 5 10 10 10 6 0 10 -4 10 -10z m-2320 -40 c0 -5 -4 -10 -10 -10 -5 0 -10 5
-10 10 0 6 5 10 10 10 6 0 10 -4 10 -10z m2320 0 c0 -5 -4 -10 -10 -10 -5 0
-10 5 -10 10 0 6 5 10 10 10 6 0 10 -4 10 -10z m-2320 -40 c0 -5 -4 -10 -10
-10 -5 0 -10 5 -10 10 0 6 5 10 10 10 6 0 10 -4 10 -10z m2320 0 c0 -5 -4 -10
-10 -10 -5 0 -10 5 -10 10 0 6 5 10 10 10 6 0 10 -4 10 -10z m-2320 -40 c0 -5
-4 -10 -10 -10 -5 0 -10 5 -10 10 0 6 5 10 10 10 6 0 10 -4 10 -10z m2320 0
c0 -5 -4 -10 -10 -10 -5 0 -10 5 -10 10 0 6 5 10 10 10 6 0 10 -4 10 -10z
m-2310 -40 c0 -5 -4 -10 -10 -10 -5 0 -10 5 -10 10 0 6 5 10 10 10 6 0 10 -4
10 -10z m2300 0 c0 -5 -4 -10 -10 -10 -5 0 -10 5 -10 10 0 6 5 10 10 10 6 0
10 -4 10 -10z m-2300 -40 c0 -5 -4 -10 -10 -10 -5 0 -10 5 -10 10 0 6 5 10 10
10 6 0 10 -4 10 -10z m2300 0 c0 -5 -4 -10 -10 -10 -5 0 -10 5 -10 10 0 6 5
10 10 10 6 0 10 -4 10 -10z m-2290 -40 c0 -5 -4 -10 -10 -10 -5 0 -10 5 -10
10 0 6 5 10 10 10 6 0 10 -4 10 -10z m2280 0 c0 -5 -4 -10 -10 -10 -5 0 -10 5
-10 10 0 6 5 10 10 10 6 0 10 -4 10 -10z m-2270 -34 c0 -3 -4 -8 -10 -11 -5
-3 -10 -1 -10 4 0 6 5 11 10 11 6 0 10 -2 10 -4z m2270 0 c0 -11 -19 -15 -25
-6 -3 5 1 10 9 10 9 0 16 -2 16 -4z m-2260 -40 c0 -11 -19 -15 -25 -6 -3 5 1
10 9 10 9 0 16 -2 16 -4z m2250 0 c0 -11 -19 -15 -25 -6 -3 5 1 10 9 10 9 0
16 -2 16 -4z m-2240 -40 c0 -11 -19 -15 -25 -6 -3 5 1 10 9 10 9 0 16 -2 16
-4z m2230 0 c0 -11 -19 -15 -25 -6 -3 5 1 10 9 10 9 0 16 -2 16 -4z m-2225
-35 c3 -5 1 -12 -5 -16 -5 -3 -10 1 -10 9 0 18 6 21 15 7z m2205 -7 c0 -8 -5
-12 -10 -9 -6 4 -8 11 -5 16 9 14 15 11 15 -7z m-2190 -34 c0 -5 -4 -10 -10
-10 -5 0 -10 5 -10 10 0 6 5 10 10 10 6 0 10 -4 10 -10z m2180 0 c0 -5 -4 -10
-10 -10 -5 0 -10 5 -10 10 0 6 5 10 10 10 6 0 10 -4 10 -10z m-2165 -40 c3 -5
-1 -10 -10 -10 -9 0 -13 5 -10 10 3 6 8 10 10 10 2 0 7 -4 10 -10z m2150 0 c3
-5 -1 -10 -10 -10 -9 0 -13 5 -10 10 3 6 8 10 10 10 2 0 7 -4 10 -10z m-2135
-40 c0 -5 -4 -10 -10 -10 -5 0 -10 5 -10 10 0 6 5 10 10 10 6 0 10 -4 10 -10z
m2120 0 c0 -5 -4 -10 -10 -10 -5 0 -10 5 -10 10 0 6 5 10 10 10 6 0 10 -4 10
-10z m-2105 -29 c3 -5 1 -12 -5 -16 -5 -3 -10 1 -10 9 0 18 6 21 15 7z m2085
-7 c0 -8 -5 -12 -10 -9 -6 4 -8 11 -5 16 9 14 15 11 15 -7z m-2060 -34 c0 -5
-4 -10 -10 -10 -5 0 -10 5 -10 10 0 6 5 10 10 10 6 0 10 -4 10 -10z m2040 0
c0 -5 -4 -10 -10 -10 -5 0 -10 5 -10 10 0 6 5 10 10 10 6 0 10 -4 10 -10z
m-2020 -34 c0 -11 -19 -15 -25 -6 -3 5 1 10 9 10 9 0 16 -2 16 -4z m2010 0 c0
-11 -19 -15 -25 -6 -3 5 1 10 9 10 9 0 16 -2 16 -4z m-1990 -36 c0 -5 -4 -10
-10 -10 -5 0 -10 5 -10 10 0 6 5 10 10 10 6 0 10 -4 10 -10z m1960 0 c0 -5 -4
-10 -10 -10 -5 0 -10 5 -10 10 0 6 5 10 10 10 6 0 10 -4 10 -10z m-20 -36 c0
-8 -5 -12 -10 -9 -6 4 -8 11 -5 16 9 14 15 11 15 -7z m-1920 2 c0 -3 -4 -8
-10 -11 -5 -3 -10 -1 -10 4 0 6 5 11 10 11 6 0 10 -2 10 -4z m20 -36 c0 -5 -4
-10 -10 -10 -5 0 -10 5 -10 10 0 6 5 10 10 10 6 0 10 -4 10 -10z m1880 0 c0
-5 -4 -10 -10 -10 -5 0 -10 5 -10 10 0 6 5 10 10 10 6 0 10 -4 10 -10z m-1850
-30 c0 -5 -4 -10 -10 -10 -5 0 -10 5 -10 10 0 6 5 10 10 10 6 0 10 -4 10 -10z
m1820 0 c0 -5 -4 -10 -10 -10 -5 0 -10 5 -10 10 0 6 5 10 10 10 6 0 10 -4 10
-10z m-1800 -30 c0 -5 -4 -10 -10 -10 -5 0 -10 5 -10 10 0 6 5 10 10 10 6 0
10 -4 10 -10z m1780 0 c0 -5 -4 -10 -10 -10 -5 0 -10 5 -10 10 0 6 5 10 10 10
6 0 10 -4 10 -10z m-1750 -30 c0 -5 -4 -10 -10 -10 -5 0 -10 5 -10 10 0 6 5
10 10 10 6 0 10 -4 10 -10z m1720 0 c0 -5 -4 -10 -10 -10 -5 0 -10 5 -10 10 0
6 5 10 10 10 6 0 10 -4 10 -10z m-1695 -30 c3 -5 -1 -10 -10 -10 -9 0 -13 5
-10 10 3 6 8 10 10 10 2 0 7 -4 10 -10z m1670 0 c3 -5 -1 -10 -10 -10 -9 0
-13 5 -10 10 3 6 8 10 10 10 2 0 7 -4 10 -10z m-1640 -30 c3 -5 -1 -10 -10
-10 -9 0 -13 5 -10 10 3 6 8 10 10 10 2 0 7 -4 10 -10z m1615 0 c0 -5 -7 -10
-16 -10 -8 0 -12 5 -9 10 3 6 10 10 16 10 5 0 9 -4 9 -10z m-1590 -30 c0 -5
-2 -10 -4 -10 -3 0 -8 5 -11 10 -3 6 -1 10 4 10 6 0 11 -4 11 -10z m1560 0 c0
-5 -4 -10 -10 -10 -5 0 -10 5 -10 10 0 6 5 10 10 10 6 0 10 -4 10 -10z m-1526
-31 c-3 -5 -10 -7 -15 -3 -5 3 -7 10 -3 15 3 5 10 7 15 3 5 -3 7 -10 3 -15z
m1490 0 c-3 -5 -10 -7 -15 -3 -5 3 -7 10 -3 15 3 5 10 7 15 3 5 -3 7 -10 3
-15z m-1454 -19 c0 -5 -4 -10 -10 -10 -5 0 -10 5 -10 10 0 6 5 10 10 10 6 0
10 -4 10 -10z m1420 0 c0 -5 -4 -10 -10 -10 -5 0 -10 5 -10 10 0 6 5 10 10 10
6 0 10 -4 10 -10z m-1395 -19 c3 -5 1 -12 -5 -16 -5 -3 -10 1 -10 9 0 18 6 21
15 7z m1365 -7 c0 -8 -5 -12 -10 -9 -6 4 -8 11 -5 16 9 14 15 11 15 -7z
m-1330 -24 c0 -5 -4 -10 -10 -10 -5 0 -10 5 -10 10 0 6 5 10 10 10 6 0 10 -4
10 -10z m1300 0 c0 -5 -4 -10 -10 -10 -5 0 -10 5 -10 10 0 6 5 10 10 10 6 0
10 -4 10 -10z m-1260 -20 c0 -5 -4 -10 -10 -10 -5 0 -10 5 -10 10 0 6 5 10 10
10 6 0 10 -4 10 -10z m30 -20 c0 -5 -4 -10 -10 -10 -5 0 -10 5 -10 10 0 6 5
10 10 10 6 0 10 -4 10 -10z m1160 0 c0 -5 -4 -10 -10 -10 -5 0 -10 5 -10 10 0
6 5 10 10 10 6 0 10 -4 10 -10z m-1120 -20 c0 -5 -4 -10 -10 -10 -5 0 -10 5
-10 10 0 6 5 10 10 10 6 0 10 -4 10 -10z m1080 0 c0 -5 -4 -10 -10 -10 -5 0
-10 5 -10 10 0 6 5 10 10 10 6 0 10 -4 10 -10z m-1050 -20 c0 -5 -4 -10 -10
-10 -5 0 -10 5 -10 10 0 6 5 10 10 10 6 0 10 -4 10 -10z m1020 0 c0 -5 -4 -10
-10 -10 -5 0 -10 5 -10 10 0 6 5 10 10 10 6 0 10 -4 10 -10z m-980 -20 c0 -5
-4 -10 -10 -10 -5 0 -10 5 -10 10 0 6 5 10 10 10 6 0 10 -4 10 -10z m940 0 c0
-5 -2 -10 -4 -10 -3 0 -8 5 -11 10 -3 6 -1 10 4 10 6 0 11 -4 11 -10z m-905
-10 c3 -5 1 -10 -4 -10 -6 0 -11 5 -11 10 0 6 2 10 4 10 3 0 8 -4 11 -10z
m870 0 c3 -5 -1 -10 -10 -10 -9 0 -13 5 -10 10 3 6 8 10 10 10 2 0 7 -4 10
-10z m-825 -14 c0 -11 -19 -15 -25 -6 -3 5 1 10 9 10 9 0 16 -2 16 -4z m790
-6 c0 -5 -4 -10 -10 -10 -5 0 -10 5 -10 10 0 6 5 10 10 10 6 0 10 -4 10 -10z
m-760 -10 c0 -5 -4 -10 -10 -10 -5 0 -10 5 -10 10 0 6 5 10 10 10 6 0 10 -4
10 -10z m720 0 c0 -5 -4 -10 -10 -10 -5 0 -10 5 -10 10 0 6 5 10 10 10 6 0 10
-4 10 -10z m-680 -10 c0 -5 -4 -10 -10 -10 -5 0 -10 5 -10 10 0 6 5 10 10 10
6 0 10 -4 10 -10z m640 0 c0 -5 -4 -10 -10 -10 -5 0 -10 5 -10 10 0 6 5 10 10
10 6 0 10 -4 10 -10z m-600 -10 c0 -5 -4 -10 -10 -10 -5 0 -10 5 -10 10 0 6 5
10 10 10 6 0 10 -4 10 -10z m560 0 c0 -5 -4 -10 -10 -10 -5 0 -10 5 -10 10 0
6 5 10 10 10 6 0 10 -4 10 -10z m-520 -10 c0 -5 -4 -10 -10 -10 -5 0 -10 5
-10 10 0 6 5 10 10 10 6 0 10 -4 10 -10z m480 0 c0 -5 -4 -10 -10 -10 -5 0
-10 5 -10 10 0 6 5 10 10 10 6 0 10 -4 10 -10z m-440 -10 c0 -5 -4 -10 -10
-10 -5 0 -10 5 -10 10 0 6 5 10 10 10 6 0 10 -4 10 -10z m360 -6 c0 -8 -5 -12
-10 -9 -6 4 -8 11 -5 16 9 14 15 11 15 -7z m40 6 c0 -5 -4 -10 -10 -10 -5 0
-10 5 -10 10 0 6 5 10 10 10 6 0 10 -4 10 -10z m-360 -4 c0 -3 -4 -8 -10 -11
-5 -3 -10 -1 -10 4 0 6 5 11 10 11 6 0 10 -2 10 -4z m40 -6 c0 -5 -4 -10 -10
-10 -5 0 -10 5 -10 10 0 6 5 10 10 10 6 0 10 -4 10 -10z m40 0 c0 -5 -4 -10
-10 -10 -5 0 -10 5 -10 10 0 6 5 10 10 10 6 0 10 -4 10 -10z m160 0 c0 -5 -4
-10 -10 -10 -5 0 -10 5 -10 10 0 6 5 10 10 10 6 0 10 -4 10 -10z m40 0 c0 -5
-4 -10 -10 -10 -5 0 -10 5 -10 10 0 6 5 10 10 10 6 0 10 -4 10 -10z m-160 -10
c0 -5 -4 -10 -10 -10 -5 0 -10 5 -10 10 0 6 5 10 10 10 6 0 10 -4 10 -10z m40
0 c0 -5 -4 -10 -10 -10 -5 0 -10 5 -10 10 0 6 5 10 10 10 6 0 10 -4 10 -10z
m40 0 c0 -5 -4 -10 -10 -10 -5 0 -10 5 -10 10 0 6 5 10 10 10 6 0 10 -4 10
-10z"/>
<path d="M1365 2658 c4 -18 11 -40 16 -48 7 -13 8 -13 9 1 0 32 -13 79 -22 79
-6 0 -7 -14 -3 -32z"/>
<path d="M1516 2633 l5 -53 -43 -2 c-24 -1 -53 -1 -65 0 -13 0 -23 -5 -23 -12
0 -7 -11 -18 -25 -24 -21 -10 -27 -8 -45 15 -11 14 -20 21 -20 15 0 -6 4 -13
9 -16 15 -9 7 -32 -22 -67 -15 -18 -27 -36 -27 -41 0 -4 -8 -8 -19 -8 -15 0
-20 -10 -25 -45 -9 -54 -36 -64 -36 -13 0 17 -3 28 -6 25 -4 -4 -6 -40 -5 -81
2 -78 -21 -234 -27 -183 -2 15 -8 25 -13 22 -12 -8 -12 -57 1 -91 6 -15 7 -31
2 -38 -10 -12 -9 -22 6 -106 20 -105 21 -140 6 -140 -15 0 -29 -42 -21 -62 3
-7 6 -3 6 8 1 12 7 27 15 33 11 10 17 8 25 -6 9 -14 10 -9 4 22 -13 79 -7 346
11 430 46 216 162 338 322 339 51 1 69 -4 110 -29 63 -40 117 -112 153 -205
44 -117 56 -196 56 -387 0 -139 2 -169 13 -161 26 22 37 -10 36 -108 0 -96 11
-99 20 -6 3 26 14 76 25 111 27 81 25 89 -4 26 l-24 -49 -11 29 c-6 16 -8 35
-5 43 3 7 7 44 10 80 6 80 -10 65 -23 -20 -6 -40 -9 -47 -13 -28 -6 27 4 82
39 215 11 44 23 116 25 160 5 72 4 77 -8 50 -7 -16 -22 -74 -33 -128 -11 -55
-23 -102 -26 -105 -11 -10 -11 165 -1 248 l5 35 -16 -27 c-8 -16 -16 -28 -18
-28 -7 0 2 98 19 202 23 150 13 158 -14 13 -29 -157 -31 -162 -42 -143 -4 8
-4 43 1 79 12 84 12 84 -5 69 -9 -7 -13 -20 -10 -29 2 -9 1 -22 -3 -28 -14
-22 -73 65 -66 96 5 24 4 24 -7 6 -7 -11 -13 -21 -15 -23 -5 -7 -44 33 -44 45
0 7 -4 13 -10 13 -5 0 -10 -5 -10 -11 0 -8 -4 -8 -12 -1 -7 5 -22 11 -33 13
-13 3 -24 20 -37 59 l-17 55 5 -52z"/>
<path d="M1629 2668 c-5 -12 -4 -88 1 -88 3 0 7 20 9 45 1 25 -1 45 -4 45 -3
0 -5 -1 -6 -2z"/>
<path d="M1287 2601 c-4 -17 -3 -21 5 -13 5 5 8 16 6 23 -3 8 -7 3 -11 -10z"/>
<path d="M1310 2609 c0 -8 5 -21 10 -29 8 -12 9 -10 7 7 -4 26 -17 43 -17 22z"/>
<path d="M1801 2574 c0 -11 3 -14 6 -6 3 7 2 16 -1 19 -3 4 -6 -2 -5 -13z"/>
<path d="M1890 2570 c0 -19 3 -21 12 -12 9 9 9 15 0 24 -9 9 -12 7 -12 -12z"/>
<path d="M1925 2525 c-9 -32 -14 -59 -12 -61 2 -3 11 21 20 53 9 31 15 58 13
61 -2 2 -12 -22 -21 -53z"/>
<path d="M956 2437 c3 -48 9 -98 14 -110 9 -21 9 -21 9 3 0 14 -7 63 -14 110
l-13 85 4 -88z"/>
<path d="M2041 2474 c0 -11 3 -14 6 -6 3 7 2 16 -1 19 -3 4 -6 -2 -5 -13z"/>
<path d="M2116 2372 c-10 -55 -16 -106 -13 -113 3 -9 6 -7 6 6 1 11 12 55 26
98 26 81 32 113 16 88 -7 -11 -10 -11 -12 4 -2 9 -12 -28 -23 -83z"/>
<path d="M800 2425 c1 -26 2 -28 11 -12 8 14 8 22 0 30 -8 8 -11 3 -11 -18z"/>
<path d="M1420 2443 c0 -5 9 -58 20 -118 11 -60 20 -118 19 -129 -2 -33 -29
64 -34 119 -2 28 -11 68 -20 90 -10 28 -14 31 -10 11 3 -15 8 -42 11 -60 3
-25 3 -27 -5 -11 -10 20 -10 20 -11 0 -1 -16 -4 -14 -15 10 -12 25 -14 26 -9
5 4 -14 12 -38 20 -55 l13 -30 -4 30 c-3 17 -2 24 1 16 5 -11 8 -11 15 0 6 10
8 4 7 -16 -1 -28 24 -144 42 -190 12 -31 4 181 -10 258 -7 37 -16 70 -21 73
-5 3 -9 1 -9 -3z"/>
<path d="M1484 2259 c2 -105 6 -193 9 -195 3 -3 6 83 6 190 1 136 -2 196 -9
196 -8 0 -10 -57 -6 -191z"/>
<path d="M1526 2434 c-11 -28 -5 -379 6 -360 5 9 7 29 4 44 -3 15 -2 92 3 172
8 134 3 187 -13 144z"/>
<path d="M1891 2428 c0 -9 -4 -25 -7 -35 -5 -14 -4 -15 5 -7 7 7 11 22 8 35
-2 13 -5 16 -6 7z"/>
<path d="M2032 2420 c0 -14 2 -19 5 -12 2 6 2 18 0 25 -3 6 -5 1 -5 -13z"/>
<path d="M1582 2385 c-23 -99 -42 -243 -35 -263 6 -16 17 8 47 103 33 105 37
128 27 147 l-12 23 5 -22 c2 -13 0 -23 -5 -23 -4 0 -6 -6 -4 -12 3 -7 -7 -49
-20 -93 l-25 -80 6 55 c3 30 12 85 21 123 8 37 13 73 10 80 -2 6 -9 -10 -15
-38z m-25 -247 c-3 -7 -5 -2 -5 12 0 14 2 19 5 13 2 -7 2 -19 0 -25z"/>
<path d="M820 2379 c0 -42 18 -99 32 -99 5 0 6 -5 2 -12 -4 -7 -3 -8 4 -4 9 5
7 17 -6 44 -10 20 -17 45 -15 54 3 10 0 25 -6 35 -9 15 -10 12 -11 -18z"/>
<path d="M2206 2375 c-4 -20 -4 -45 0 -57 3 -11 2 -18 -2 -15 -5 3 -10 -7 -10
-21 -1 -15 -5 -47 -8 -72 -5 -36 -2 -30 14 25 19 65 28 160 17 171 -2 3 -8
-11 -11 -31z"/>
<path d="M1847 2384 c-4 -4 -7 -19 -6 -33 l0 -26 10 24 c10 26 8 47 -4 35z"/>
<path d="M2066 2330 c-4 -25 -10 -72 -12 -105 -3 -33 -10 -73 -16 -88 -6 -15
-8 -30 -5 -33 9 -9 25 57 38 152 12 95 8 154 -5 74z"/>
<path d="M2256 2328 c-26 -123 -32 -168 -25 -180 6 -8 9 1 9 28 0 22 3 44 8
48 4 4 8 12 8 17 1 5 2 10 3 12 5 5 12 107 8 107 -3 0 -8 -15 -11 -32z"/>
<path d="M1662 2323 c-26 -48 -60 -133 -52 -128 18 11 11 -7 -30 -78 -45 -78
-49 -118 -5 -47 15 25 54 84 86 131 55 82 57 87 34 85 -14 0 -25 -7 -25 -14 0
-7 5 -10 12 -6 7 4 8 3 4 -5 -4 -6 -11 -9 -16 -6 -5 3 -16 -8 -25 -26 -9 -17
-19 -29 -21 -26 -3 3 9 33 26 67 17 34 29 64 26 67 -2 3 -9 -4 -14 -14z"/>
<path d="M2011 2333 c-1 -6 -4 -20 -7 -30 -5 -17 -5 -17 6 0 6 10 9 23 6 30
-3 9 -5 9 -5 0z"/>
<path d="M1290 2323 c0 -7 34 -65 76 -130 42 -65 83 -129 91 -141 8 -13 17
-21 20 -19 9 10 -100 202 -130 228 -28 24 -31 49 -6 49 6 0 7 -4 4 -10 -3 -5
-2 -10 3 -10 4 0 18 -18 31 -40 12 -22 25 -40 27 -40 3 0 -9 27 -28 60 -34 62
-44 71 -54 45 -6 -14 -8 -13 -20 2 -7 10 -14 13 -14 6z"/>
<path d="M2041 2314 c0 -11 3 -14 6 -6 3 7 2 16 -1 19 -3 4 -6 -2 -5 -13z"/>
<path d="M1273 2265 c0 -17 5 -25 17 -25 10 0 20 -10 24 -23 3 -12 20 -36 37
-52 l32 -30 -19 30 c-25 40 -85 125 -89 125 -1 0 -2 -11 -2 -25z"/>
<path d="M1991 2264 c0 -11 3 -14 6 -6 3 7 2 16 -1 19 -3 4 -6 -2 -5 -13z"/>
<path d="M1700 2224 c-18 -25 -30 -47 -27 -50 4 -5 32 33 54 74 20 37 6 25
-27 -24z"/>
<path d="M2349 2261 c-1 -6 -3 -15 -4 -21 -1 -5 -3 -18 -4 -27 -1 -16 -3 -16
-12 -3 -9 13 -10 12 -5 -2 3 -9 -8 -43 -24 -75 -30 -62 -45 -113 -33 -112 23
1 110 233 92 245 -5 3 -10 0 -10 -5z"/>
<path d="M2022 2223 c-6 -20 -7 -32 -2 -27 10 10 25 64 18 64 -3 0 -10 -16
-16 -37z"/>
<path d="M1112 2230 c0 -14 2 -19 5 -12 2 6 2 18 0 25 -3 6 -5 1 -5 -13z"/>
<path d="M1250 2225 c0 -13 24 -41 64 -75 36 -30 63 -57 61 -59 -2 -2 -35 20
-73 48 -38 28 -73 51 -76 51 -17 0 11 -24 96 -82 98 -67 104 -89 11 -39 -57
31 -91 41 -63 18 8 -7 16 -19 18 -29 2 -12 -3 -15 -20 -11 -21 4 -21 3 -5 -7
10 -7 44 -13 76 -14 60 -3 102 -18 82 -30 -10 -6 -201 11 -209 18 -7 7 11 35
19 30 5 -3 7 5 6 18 -2 13 -11 24 -19 26 -19 4 -28 -44 -28 -158 l1 -85 29 63
c16 34 29 67 27 71 -5 19 48 14 68 -6 15 -14 23 -15 61 -5 53 14 64 15 64 3 0
-5 -29 -17 -65 -27 -36 -10 -65 -23 -65 -29 0 -6 -19 -19 -42 -30 -46 -22 -58
-47 -48 -100 5 -27 6 -26 19 23 l13 53 92 46 c118 59 119 60 101 86 -8 12 -15
29 -15 38 0 9 -11 24 -25 33 -14 9 -23 21 -20 26 6 10 -65 94 -72 86 -6 -6
-37 23 -51 49 -11 20 -11 20 -12 0z m68 -164 c11 -7 10 -9 -3 -14 -9 -4 -14
-3 -10 2 3 5 -1 12 -7 14 -7 3 -8 6 -3 6 6 0 16 -3 23 -8z m-96 -93 c-7 -7
-10 -5 -7 8 5 29 6 30 12 16 3 -8 1 -18 -5 -24z"/>
<path d="M2082 2169 c-12 -71 -10 -111 3 -47 3 18 11 45 17 60 6 16 6 33 1 42
-6 12 -12 -4 -21 -55z"/>
<path d="M616 2205 c4 -23 3 -26 -5 -15 -6 8 -11 10 -11 5 0 -6 28 -37 61 -70
46 -44 55 -51 38 -25 -13 19 -32 43 -41 54 -10 11 -18 25 -18 31 0 6 -7 20
-15 31 -14 18 -15 17 -9 -11z"/>
<path d="M770 2192 c0 -5 7 -17 15 -28 14 -19 14 -19 15 2 0 12 -7 24 -15 28
-8 3 -15 2 -15 -2z"/>
<path d="M876 2187 c3 -10 9 -15 12 -12 3 3 0 11 -7 18 -10 9 -11 8 -5 -6z"/>
<path d="M1676 2150 c-27 -26 -46 -52 -42 -58 3 -6 -7 -20 -23 -32 -18 -12
-28 -27 -25 -35 5 -12 14 -11 57 6 29 11 61 29 72 40 17 17 12 17 -39 -6 -32
-14 -60 -24 -62 -22 -3 2 29 28 71 56 41 29 75 57 75 62 0 5 -25 -9 -55 -31
-73 -54 -81 -51 -15 8 30 27 50 51 44 54 -5 3 -31 -15 -58 -42z"/>
<path d="M2391 2182 c-6 -12 -11 -27 -11 -36 0 -8 -5 -16 -11 -18 -7 -2 -10
-11 -7 -18 4 -10 14 3 28 33 21 48 22 78 1 39z"/>
<path d="M2156 2175 c-9 -26 -7 -32 5 -12 6 10 9 21 6 23 -2 3 -7 -2 -11 -11z"/>
<path d="M560 2155 c0 -27 111 -225 126 -225 6 0 -9 35 -22 50 -7 9 -32 55
-54 103 -39 86 -50 101 -50 72z"/>
<path d="M1935 2113 c-19 -53 -35 -183 -23 -183 4 0 8 1 8 3 0 2 9 53 20 112
10 60 18 111 16 113 -2 2 -11 -19 -21 -45z"/>
<path d="M2159 2115 c-8 -32 -14 -42 -20 -33 -5 7 -9 9 -9 3 0 -14 18 -41 23
-35 8 9 28 103 23 107 -3 3 -10 -16 -17 -42z"/>
<path d="M1220 2120 c-12 -7 -12 -10 3 -16 21 -8 29 -3 19 13 -5 8 -13 9 -22
3z"/>
<path d="M2213 2115 c-9 -24 1 -27 15 -5 8 13 8 20 2 20 -6 0 -13 -7 -17 -15z"/>
<path d="M770 2117 c0 -4 7 -21 15 -36 8 -16 16 -40 19 -54 6 -32 19 -58 66
-127 21 -30 41 -66 45 -79 7 -22 8 -23 17 -6 6 10 7 20 1 24 -4 3 -34 58 -66
121 -54 107 -96 176 -97 157z"/>
<path d="M910 2100 c6 -11 13 -20 16 -20 2 0 0 9 -6 20 -6 11 -13 20 -16 20
-2 0 0 -9 6 -20z"/>
<path d="M1760 2103 c-10 -12 -11 -18 -2 -21 7 -2 12 -8 12 -13 0 -6 -4 -8 -8
-5 -4 2 -8 -4 -8 -15 0 -10 5 -19 10 -19 6 0 5 -5 -2 -12 -14 -14 -15 -73 -2
-103 8 -18 9 -18 10 5 1 14 3 39 5 55 10 81 13 145 7 145 -4 -1 -14 -8 -22
-17z"/>
<path d="M990 2062 c0 -14 28 -72 35 -72 6 0 -16 63 -26 75 -6 5 -9 4 -9 -3z"/>
<path d="M2471 2012 c-12 -26 -43 -82 -68 -125 -25 -43 -42 -81 -38 -85 4 -4
10 -1 12 6 3 7 10 18 17 25 22 22 65 104 59 111 -3 3 -2 6 4 6 6 0 16 12 22
28 6 15 15 37 21 49 19 44 -7 31 -29 -15z"/>
<path d="M1986 2004 c-9 -26 -14 -49 -12 -51 2 -2 11 17 20 43 9 26 14 49 12
51 -2 2 -11 -17 -20 -43z"/>
<path d="M720 2024 c0 -14 35 -46 42 -38 3 3 6 -1 5 -8 -1 -38 5 -58 17 -58 9
0 13 7 11 19 -6 30 -24 61 -37 61 -6 0 -17 8 -24 18 -7 9 -14 12 -14 6z"/>
<path d="M1698 2023 c7 -3 16 -2 19 1 4 3 -2 6 -13 5 -11 0 -14 -3 -6 -6z"/>
<path d="M2021 1994 c-6 -21 -9 -40 -6 -42 2 -2 8 13 14 34 6 21 9 40 6 42 -2
2 -8 -13 -14 -34z"/>
<path d="M490 2010 c0 -13 88 -144 144 -217 23 -28 49 -62 59 -75 17 -22 17
-22 1 12 -19 40 -71 120 -88 135 -18 16 -70 96 -72 111 -2 14 -28 44 -38 44
-3 0 -6 -5 -6 -10z"/>
<path d="M1600 1990 c-19 -4 -26 -8 -16 -9 11 0 35 -6 53 -13 26 -9 36 -10 41
-1 4 7 19 16 32 22 21 8 18 10 -25 9 -27 0 -66 -4 -85 -8z"/>
<path d="M2095 1981 c-3 -12 -13 -28 -21 -36 -9 -8 -11 -15 -5 -15 12 0 45 59
38 67 -3 2 -8 -5 -12 -16z"/>
<path d="M2254 1983 c4 -9 3 -19 -1 -22 -13 -9 -42 -58 -54 -88 -13 -34 -10
-31 35 36 36 53 46 91 25 91 -6 0 -8 -7 -5 -17z"/>
<path d="M1570 1964 c0 -7 74 -37 98 -40 37 -5 25 3 -38 24 -33 12 -60 19 -60
16z"/>
<path d="M480 1943 c1 -5 7 -19 15 -33 8 -14 14 -35 15 -48 0 -30 39 -122 59
-142 9 -8 26 -31 39 -50 l23 -35 -31 35 c-30 34 -31 34 -21 7 10 -26 46 -70
161 -201 25 -29 68 -88 95 -131 97 -158 176 -277 182 -272 3 3 -9 25 -25 49
-17 24 -57 88 -88 143 -145 251 -161 276 -169 258 -6 -15 -8 -15 -13 -3 -3 8
-19 33 -36 55 -17 22 -42 62 -56 90 -14 27 -33 59 -44 70 -10 11 -28 40 -39
65 -12 25 -23 49 -25 54 -3 5 1 6 7 2 14 -9 85 -116 112 -169 11 -21 22 -37
25 -35 5 6 -49 104 -86 153 -16 22 -44 64 -61 93 -29 50 -39 61 -39 45z m267
-445 c-3 -8 -6 -5 -6 6 -1 11 2 17 5 13 3 -3 4 -12 1 -19z"/>
<path d="M1390 1914 c-46 -23 -60 -34 -49 -39 15 -6 100 43 114 66 4 5 5 8 3
7 -2 0 -32 -16 -68 -34z"/>
<path d="M1560 1943 c1 -12 100 -73 120 -73 30 0 70 -39 70 -68 -1 -26 -1 -26
-15 -7 -27 38 -36 45 -63 52 -15 3 -32 13 -39 22 -6 9 -15 13 -19 8 -4 -4 -20
5 -36 20 -35 33 -36 19 -2 -41 19 -34 30 -44 37 -37 6 6 22 11 37 10 23 -1 22
-2 -8 -10 -28 -9 -32 -13 -26 -37 4 -21 -1 -17 -25 21 -31 47 -51 65 -31 27 7
-12 7 -27 2 -37 -5 -11 -5 -32 1 -53 9 -34 10 -34 18 -12 8 21 14 23 47 18 20
-4 44 -2 52 4 11 8 8 9 -12 4 -50 -11 -48 46 2 59 11 3 19 2 18 -2 -2 -12 17
-46 27 -47 6 -1 20 -5 33 -9 21 -6 22 -4 22 43 0 34 -5 54 -17 64 -24 21 -85
46 -100 41 -7 -3 -25 4 -40 15 -43 29 -53 34 -53 25z m70 -87 c0 -2 -7 -6 -15
-10 -8 -3 -15 -1 -15 4 0 6 7 10 15 10 8 0 15 -2 15 -4z"/>
<path d="M2496 1934 c-9 -24 -2 -26 12 -4 7 11 8 20 3 20 -5 0 -12 -7 -15 -16z"/>
<path d="M1955 1910 c-4 -12 -5 -24 -2 -27 3 -2 8 5 12 17 4 12 5 24 2 27 -3
2 -8 -5 -12 -17z"/>
<path d="M1440 1892 c-17 -22 -26 -28 -31 -20 -6 9 -14 7 -32 -10 -25 -24 -31
-49 -15 -69 5 -7 7 -21 3 -33 -6 -18 -3 -20 18 -15 27 7 48 -12 24 -21 -9 -3
-13 -13 -10 -25 8 -28 19 -24 34 13 11 27 14 28 19 12 5 -13 9 -5 14 28 4 27
3 55 -3 65 -8 15 -12 13 -26 -18 -9 -20 -23 -36 -31 -36 -7 0 -12 3 -10 6 1 3
20 34 40 69 41 67 45 107 6 54z m-50 -36 c0 -2 -8 -10 -17 -17 -16 -13 -17
-12 -4 4 13 16 21 21 21 13z m-4 -53 c-10 -10 -19 5 -10 18 6 11 8 11 12 0 2
-7 1 -15 -2 -18z"/>
<path d="M2041 1885 c-11 -20 -21 -40 -21 -45 0 -5 -11 -44 -25 -87 -13 -42
-22 -79 -20 -81 5 -5 32 59 51 123 9 28 22 65 30 84 20 46 11 50 -15 6z"/>
<path d="M791 1903 c-1 -17 16 -25 25 -12 4 7 3 9 -4 5 -5 -3 -13 0 -15 6 -4
9 -6 10 -6 1z"/>
<path d="M1101 1900 c0 -8 4 -24 9 -35 5 -13 9 -14 9 -5 0 8 -4 24 -9 35 -5
13 -9 14 -9 5z"/>
<path d="M1493 1840 c0 -30 2 -43 4 -27 2 15 2 39 0 55 -2 15 -4 2 -4 -28z"/>
<path d="M1521 1845 c0 -38 2 -45 9 -28 5 12 5 34 0 50 -7 24 -8 21 -9 -22z"/>
<path d="M1935 1860 c-3 -5 -1 -10 4 -10 6 0 11 5 11 10 0 6 -2 10 -4 10 -3 0
-8 -4 -11 -10z"/>
<path d="M440 1836 c0 -7 8 -20 17 -27 15 -12 16 -12 10 4 -4 10 -7 23 -7 28
0 5 -4 9 -10 9 -5 0 -10 -6 -10 -14z"/>
<path d="M1293 1831 c-45 -49 -46 -51 -31 -69 8 -9 18 -24 21 -33 3 -9 19 -21
36 -27 45 -16 42 13 -4 35 -38 18 -43 28 -20 37 9 3 15 0 15 -9 0 -8 2 -15 4
-15 2 0 13 -3 23 -7 14 -5 13 0 -7 21 -24 27 -25 28 -6 42 23 16 14 19 -15 4
-13 -7 -19 -7 -19 0 0 5 6 10 14 10 7 0 19 7 26 15 20 24 -16 20 -37 -4z"/>
<path d="M830 1827 c0 -20 35 -91 75 -152 25 -38 26 -39 20 -10 -4 16 -10 32
-14 35 -5 3 -18 25 -30 50 -36 76 -51 98 -51 77z"/>
<path d="M2196 1813 c-6 -14 -5 -15 5 -6 7 7 10 15 7 18 -3 3 -9 -2 -12 -12z"/>
<path d="M770 1813 c0 -6 7 -13 15 -17 8 -3 15 -12 15 -19 0 -8 7 -20 15 -27
10 -9 15 -9 15 -1 0 6 -4 11 -10 11 -5 0 -10 6 -10 13 0 8 -9 22 -20 32 -11
10 -20 13 -20 8z"/>
<path d="M937 1796 c-4 -10 -1 -13 8 -9 8 3 12 9 9 14 -7 12 -11 11 -17 -5z"/>
<path d="M2079 1111 c-9 -20 -13 -39 -8 -42 11 -6 31 43 27 64 -2 8 -10 -2
-19 -22z"/>
<path d="M1041 1774 c0 -11 3 -14 6 -6 3 7 2 16 -1 19 -3 4 -6 -2 -5 -13z"/>
<path d="M2170 1775 c-7 -9 -10 -18 -7 -21 3 -3 10 4 17 15 13 25 8 27 -10 6z"/>
<path d="M2547 1759 c-10 -18 -16 -33 -14 -35 2 -2 10 7 17 21 7 14 17 25 22
25 4 0 8 5 8 10 0 19 -15 9 -33 -21z"/>
<path d="M945 1770 c-3 -6 1 -7 9 -4 18 7 21 14 7 14 -6 0 -13 -4 -16 -10z"/>
<path d="M1944 1703 c-16 -43 -28 -87 -26 -97 1 -11 -1 -17 -5 -13 -4 4 -19
-20 -34 -53 -33 -71 -129 -397 -128 -431 0 -13 25 60 54 164 30 103 61 199 69
215 7 15 17 43 21 62 7 29 9 32 15 15 6 -17 8 -15 14 10 4 17 19 67 33 113 14
46 23 85 21 88 -3 2 -18 -31 -34 -73z"/>
<path d="M477 1743 c-3 -5 -2 -15 2 -22 5 -7 11 -9 14 -4 3 5 2 15 -2 22 -5 7
-11 9 -14 4z"/>
<path d="M1050 1730 c0 -11 7 -38 16 -60 15 -37 18 -39 30 -23 13 16 14 15 8
-11 -5 -22 -4 -27 6 -21 9 6 12 4 8 -6 -3 -8 -2 -23 3 -34 6 -15 8 -11 8 18 1
41 -15 81 -28 72 -11 -6 -23 23 -16 36 3 4 -3 17 -15 29 -20 20 -20 20 -20 0z"/>
<path d="M2310 1711 c-11 -23 -17 -41 -12 -41 9 0 44 72 37 78 -2 2 -13 -14
-25 -37z"/>
<path d="M1665 1729 c-16 -5 -36 -7 -43 -4 -18 7 -10 -16 10 -29 19 -11 63 7
72 30 6 16 3 16 -39 3z"/>
<path d="M2127 1673 c-14 -38 -44 -115 -66 -173 -23 -57 -41 -109 -40 -115 0
-11 87 202 120 294 28 79 17 73 -14 -6z"/>
<path d="M1464 1680 c-8 -37 -12 -46 -13 -26 -1 24 -3 27 -16 16 -8 -7 -15
-25 -15 -41 0 -15 -5 -40 -10 -55 -13 -34 -5 -42 20 -19 20 18 20 17 20 -8 0
-20 -4 -24 -20 -20 -17 5 -20 0 -20 -26 0 -38 17 -74 31 -66 5 4 6 11 3 17 -4
7 -2 8 4 4 6 -4 9 -13 6 -21 -9 -23 5 -36 27 -25 16 9 19 7 19 -8 0 -11 3 -34
6 -51 5 -24 3 -31 -9 -31 -8 0 -17 5 -19 12 -3 8 -9 8 -24 0 -10 -6 -14 -12
-9 -13 6 -1 15 -2 20 -4 6 -1 24 -3 40 -5 28 -2 28 -3 -10 -11 -61 -12 -73
-11 -94 12 -18 20 -37 14 -23 -7 21 -32 141 -45 204 -22 29 11 29 28 0 28 -9
1 -28 10 -41 20 -19 16 -23 27 -19 53 7 41 1 57 -22 57 -10 0 -20 9 -23 21 -3
11 -15 23 -26 26 -12 3 -21 9 -21 14 0 14 12 11 48 -11 38 -24 41 -18 7 18
-28 30 -30 44 -14 106 6 23 9 60 7 82 l-3 39 -11 -55z m103 -386 c-3 -3 -12
-4 -19 -1 -8 3 -5 6 6 6 11 1 17 -2 13 -5z"/>
<path d="M1014 1695 c31 -106 69 -216 73 -212 6 7 -56 210 -69 222 -7 7 -8 3
-4 -10z"/>
<path d="M1835 1700 c-3 -5 -3 -10 1 -10 4 0 -1 -7 -12 -16 -10 -8 -13 -12 -5
-8 9 4 12 2 9 -7 -3 -8 -11 -13 -17 -11 -10 2 -15 -11 -12 -30 0 -4 -6 -26
-14 -49 -8 -23 -15 -53 -15 -68 l0 -26 14 27 c8 16 18 49 22 75 3 27 13 56 22
65 8 10 16 29 17 43 3 27 0 31 -10 15z"/>
<path d="M741 1645 c40 -63 39 -61 39 -44 0 8 -16 32 -36 54 l-35 40 32 -50z"/>
<path d="M1753 1684 c3 -4 2 -15 -4 -25 -7 -14 -6 -19 3 -19 9 0 9 -3 -2 -10
-12 -7 -12 -12 -2 -22 6 -6 12 -10 13 -7 9 67 9 89 -2 89 -7 0 -9 -3 -6 -6z"/>
<path d="M2061 1632 c-19 -31 -48 -82 -66 -112 -56 -94 -84 -159 -73 -167 7
-3 8 -1 4 5 -4 7 -3 12 2 12 5 0 21 26 35 58 15 31 27 51 27 43 0 -13 -31
-105 -125 -364 -25 -70 -45 -133 -43 -139 4 -12 67 150 155 401 67 194 102
282 115 299 6 7 9 14 6 17 -2 2 -19 -21 -37 -53z"/>
<path d="M1231 1663 c-1 -13 4 -23 10 -23 5 0 7 -6 3 -12 -5 -10 -3 -10 7 0
10 9 10 15 3 20 -6 4 -14 14 -17 22 -4 10 -6 8 -6 -7z"/>
<path d="M2333 1650 c-10 -18 -28 -45 -40 -60 -12 -15 -20 -30 -17 -33 3 -2
-8 -14 -25 -26 -16 -12 -36 -34 -44 -49 -7 -15 -24 -44 -36 -66 -12 -21 -20
-43 -18 -50 5 -13 -75 -167 -113 -216 -15 -19 -37 -54 -50 -77 -42 -77 -33
-37 14 58 25 51 44 94 42 96 -2 2 -18 -21 -36 -51 -19 -30 -38 -52 -43 -49 -6
3 -7 1 -3 -5 3 -6 -12 -50 -34 -97 -22 -48 -42 -99 -44 -113 -2 -15 -5 -27 -6
-27 -1 0 -3 -10 -6 -22 -10 -53 16 -24 65 74 43 86 151 262 189 308 5 6 6 17
4 24 -3 8 0 11 6 7 6 -4 44 48 91 124 76 123 94 159 71 145 -15 -9 -12 4 8 33
26 38 53 94 47 100 -2 3 -12 -10 -22 -28z m-40 -127 c-7 -2 -13 -11 -13 -19 0
-8 -9 -14 -19 -14 -23 0 -40 -22 -23 -28 8 -2 6 -12 -8 -29 -11 -14 -20 -30
-20 -35 0 -5 -16 -32 -35 -61 -34 -51 -47 -56 -21 -8 8 14 12 31 9 38 -3 7 2
16 11 19 9 3 16 12 16 20 0 7 8 18 18 23 11 6 17 20 16 38 -1 29 11 53 28 53
5 0 6 -4 3 -10 -3 -5 -2 -10 3 -10 6 0 12 7 16 15 3 8 11 15 18 14 10 0 10 -2
1 -6z"/>
<path d="M2017 1641 c-26 -45 -20 -60 8 -19 27 39 30 48 17 48 -4 0 -15 -13
-25 -29z"/>
<path d="M2179 1643 c-13 -16 -12 -17 4 -4 16 13 21 21 13 21 -2 0 -10 -8 -17
-17z"/>
<path d="M2504 1583 c-26 -43 -50 -80 -53 -83 -26 -22 -62 -84 -57 -96 7 -17
-29 -69 -47 -69 -12 0 -117 -144 -116 -160 0 -5 6 -2 12 8 47 73 100 137 112
137 8 0 26 17 41 38 16 20 38 48 50 62 13 14 28 39 33 55 l11 30 -22 -30 c-40
-52 -67 -80 -68 -69 0 6 11 24 25 40 33 37 138 205 132 210 -3 3 -26 -30 -53
-73z"/>
<path d="M850 1637 c0 -9 5 -17 11 -17 5 0 7 -4 4 -10 -3 -5 -1 -10 4 -10 15
0 13 11 -4 34 -13 17 -15 18 -15 3z"/>
<path d="M2465 1617 c-10 -17 -34 -58 -52 -90 -55 -96 -122 -182 -143 -183
-20 -1 -20 -1 -1 30 45 75 72 129 68 139 -3 11 -45 -59 -94 -158 -27 -54 -80
-134 -155 -236 -47 -65 -69 -120 -27 -69 12 14 66 81 122 149 90 108 176 220
215 277 23 36 102 166 102 170 0 14 -18 -1 -35 -29z"/>
<path d="M686 1611 c10 -18 25 -38 32 -44 8 -6 4 6 -8 26 -12 20 -27 40 -32
44 -6 3 -2 -9 8 -26z"/>
<path d="M972 1558 c22 -40 53 -100 69 -133 16 -33 33 -67 38 -75 5 -8 16 -31
25 -50 11 -23 14 -26 10 -10 -13 54 -37 109 -46 104 -5 -3 -8 0 -7 7 5 29
-102 229 -123 229 -3 0 12 -33 34 -72z"/>
<path d="M2576 1596 c-23 -49 -19 -59 5 -13 11 22 18 41 16 43 -2 3 -12 -11
-21 -30z"/>
<path d="M800 1618 c0 -4 5 -19 11 -35 6 -15 13 -37 15 -48 7 -37 35 -85 46
-79 7 4 7 9 0 13 -5 3 -18 31 -28 61 -15 49 -44 106 -44 88z"/>
<path d="M1254 1598 c3 -7 9 -21 12 -30 4 -10 13 -18 22 -18 12 0 11 5 -6 23
-12 13 -19 27 -15 30 3 4 1 7 -6 7 -7 0 -10 -6 -7 -12z"/>
<path d="M1955 1586 c-13 -20 -55 -152 -55 -173 0 -18 61 123 69 159 10 44 7
47 -14 14z"/>
<path d="M510 1585 c0 -11 44 -65 52 -65 4 0 -2 16 -14 35 -21 31 -38 45 -38
30z"/>
<path d="M1732 1568 c-12 -25 -13 -60 -1 -53 4 3 5 15 2 28 -4 18 -3 20 7 7
10 -13 11 -13 7 1 -3 9 0 22 6 28 7 7 7 11 1 11 -6 0 -16 -10 -22 -22z"/>
<path d="M900 1569 c1 -22 27 -52 35 -40 3 6 1 11 -5 11 -6 0 -9 4 -6 9 3 5
-1 14 -9 21 -12 10 -15 10 -15 -1z"/>
<path d="M1094 1565 c10 -43 59 -196 62 -192 2 2 -1 19 -6 37 -8 30 -8 32 5
20 13 -14 58 -161 51 -168 -2 -1 -13 12 -25 30 -11 18 -21 30 -21 27 0 -6 33
-86 60 -144 5 -11 14 -46 20 -77 6 -32 14 -58 17 -58 8 0 -6 104 -22 159 -7
25 -18 80 -25 121 -7 41 -22 91 -33 110 -11 19 -26 53 -33 75 -8 24 -13 32
-14 20 -1 -14 -7 -9 -21 20 -10 22 -17 31 -15 20z"/>
<path d="M610 1562 c0 -14 89 -147 90 -134 0 7 5 10 10 7 6 -4 8 -11 5 -16 -4
-5 -1 -9 6 -9 18 0 56 -53 113 -155 19 -35 21 -42 7 -25 -11 14 -21 29 -21 34
0 5 -3 6 -6 3 -4 -4 -23 15 -42 41 -20 26 -39 49 -43 52 -3 3 -5 12 -4 21 2 9
-3 16 -11 16 -11 0 -10 -6 1 -34 14 -34 65 -111 88 -135 7 -7 35 -40 61 -73
56 -69 106 -118 106 -104 0 6 7 3 16 -5 8 -9 18 -16 20 -16 7 0 -3 16 -51 80
-23 30 -72 107 -110 170 -38 63 -89 135 -113 160 -24 25 -62 64 -83 87 -21 24
-39 39 -39 35z"/>
<path d="M1156 1545 c4 -16 11 -37 15 -45 6 -10 7 -4 3 15 -4 17 -11 37 -15
45 -6 10 -7 4 -3 -15z"/>
<path d="M1230 1561 c0 -5 5 -13 10 -16 6 -3 10 -2 10 4 0 5 -4 13 -10 16 -5
3 -10 2 -10 -4z"/>
<path d="M1547 1550 c3 -11 0 -27 -7 -35 -10 -12 -9 -15 8 -15 12 0 24 -5 28
-12 5 -8 2 -9 -11 -5 -26 11 -47 -10 -34 -34 12 -23 23 -24 43 -3 21 20 22 84
1 84 -8 0 -15 9 -15 20 0 11 -4 20 -9 20 -5 0 -7 -9 -4 -20z"/>
<path d="M2120 1567 c0 -3 -7 -21 -15 -41 -8 -20 -13 -36 -10 -36 3 0 11 14
17 32 10 28 12 30 19 12 7 -18 8 -18 8 3 1 12 -3 25 -9 28 -5 3 -10 4 -10 2z"/>
<path d="M2346 1555 c-9 -26 -7 -32 5 -12 6 10 9 21 6 23 -2 3 -7 -2 -11 -11z"/>
<path d="M471 1548 c9 -7 39 -47 67 -88 27 -41 65 -88 82 -105 l33 -30 -19 30
c-38 62 -145 193 -161 199 -16 5 -16 5 -2 -6z"/>
<path d="M1295 1519 c4 -13 13 -30 21 -37 9 -7 10 -8 4 0 -6 7 -10 20 -10 29
0 10 -5 21 -11 25 -8 4 -9 -1 -4 -17z"/>
<path d="M1892 1498 c-52 -182 -78 -287 -68 -277 8 7 87 302 84 311 -2 5 -9
-10 -16 -34z"/>
<path d="M466 1522 c-2 -4 2 -16 10 -27 8 -10 14 -14 14 -8 0 7 -5 15 -10 18
-6 4 -8 11 -5 16 4 5 4 9 1 9 -3 0 -7 -3 -10 -8z"/>
<path d="M2166 1512 c-3 -5 1 -9 9 -9 8 0 12 4 9 9 -3 4 -7 8 -9 8 -2 0 -6 -4
-9 -8z"/>
<path d="M2527 1443 c-43 -68 -81 -143 -72 -143 6 0 36 58 34 66 0 4 3 10 8
13 17 11 92 131 82 131 -5 0 -29 -30 -52 -67z"/>
<path d="M603 1475 c9 -12 17 -24 17 -27 0 -11 101 -172 118 -188 8 -8 6 1 -6
20 -12 19 -34 59 -50 89 -15 29 -43 70 -62 90 -19 21 -27 28 -17 16z"/>
<path d="M966 1487 c3 -10 9 -15 12 -12 3 3 0 11 -7 18 -10 9 -11 8 -5 -6z"/>
<path d="M1714 1485 c-3 -8 -4 -20 -2 -27 3 -7 7 -1 10 15 6 29 1 36 -8 12z"/>
<path d="M2153 1482 c-6 -4 -18 -25 -27 -47 -13 -33 -13 -37 -1 -21 8 11 15
26 15 34 0 7 4 11 9 8 5 -3 12 1 15 10 8 20 4 25 -11 16z"/>
<path d="M800 1471 c0 -6 4 -13 10 -16 6 -3 7 1 4 9 -7 18 -14 21 -14 7z"/>
<path d="M1732 1460 c0 -14 2 -19 5 -12 2 6 2 18 0 25 -3 6 -5 1 -5 -13z"/>
<path d="M2080 1461 c-6 -12 -7 -21 -1 -21 10 0 24 30 17 37 -2 3 -9 -5 -16
-16z"/>
<path d="M496 1457 c3 -10 9 -15 12 -12 3 3 0 11 -7 18 -10 9 -11 8 -5 -6z"/>
<path d="M1240 1436 c0 -8 4 -17 9 -20 5 -4 7 3 4 14 -6 23 -13 26 -13 6z"/>
<path d="M1706 1425 c-3 -8 -1 -15 4 -15 6 0 10 7 10 15 0 8 -2 15 -4 15 -2 0
-6 -7 -10 -15z"/>
<path d="M1781 1424 c0 -11 3 -14 6 -6 3 7 2 16 -1 19 -3 4 -6 -2 -5 -13z"/>
<path d="M1805 1419 c-4 -6 -5 -12 -2 -15 2 -3 7 2 10 11 7 17 1 20 -8 4z"/>
<path d="M2048 1397 c-9 -19 -20 -52 -24 -73 -4 -22 -18 -67 -30 -102 -27 -70
-27 -72 -16 -72 9 0 62 129 62 149 0 7 5 9 13 5 9 -6 9 -4 1 7 -13 16 -9 56 7
75 6 7 9 21 7 30 -2 12 -8 6 -20 -19z"/>
<path d="M1730 1370 c-7 -16 -13 -46 -13 -65 -1 -19 -5 -35 -10 -35 -5 0 -7
-8 -5 -17 2 -10 -2 -23 -10 -28 -9 -7 -14 -34 -15 -76 -2 -50 -7 -71 -24 -93
-13 -16 -23 -36 -22 -45 0 -11 3 -9 9 6 5 12 15 25 23 30 8 4 23 26 34 48 19
37 24 66 39 210 3 28 7 60 10 73 6 31 -1 27 -16 -8z m-26 -175 c-4 -8 -8 -15
-10 -15 -2 0 -4 7 -4 15 0 8 4 15 10 15 5 0 7 -7 4 -15z"/>
<path d="M1028 1375 c4 -11 22 -48 40 -82 18 -35 32 -66 31 -70 -4 -23 3 -53
14 -65 6 -7 13 -26 14 -42 0 -15 6 -33 13 -40 8 -8 9 -6 4 8 -5 13 -4 17 4 12
7 -4 12 -1 12 9 0 10 -5 13 -12 9 -6 -4 -8 -3 -5 3 4 6 -8 53 -27 104 -48 131
-47 130 -57 123 -5 -3 -9 -1 -9 3 0 5 -7 18 -15 29 -15 19 -15 19 -7 -1z"/>
<path d="M1701 1374 c0 -11 3 -14 6 -6 3 7 2 16 -1 19 -3 4 -6 -2 -5 -13z"/>
<path d="M1791 1374 c0 -11 3 -14 6 -6 3 7 2 16 -1 19 -3 4 -6 -2 -5 -13z"/>
<path d="M2096 1373 c-6 -14 -5 -15 5 -6 7 7 10 15 7 18 -3 3 -9 -2 -12 -12z"/>
<path d="M900 1374 c0 -10 89 -144 96 -144 7 0 0 11 -53 89 -24 35 -43 60 -43
55z"/>
<path d="M976 1361 c-12 -13 -14 -21 -6 -26 6 -4 15 -18 21 -32 5 -13 13 -22
19 -18 5 3 18 -12 30 -35 11 -22 22 -40 24 -40 9 0 -9 58 -25 81 -10 14 -16
29 -12 33 3 3 1 6 -5 6 -6 0 -13 -10 -15 -22 -4 -20 -4 -20 -6 4 0 15 -6 30
-11 33 -6 4 -8 11 -4 16 3 5 10 6 16 3 7 -4 8 -2 4 4 -9 15 -10 15 -30 -7z"/>
<path d="M1153 1347 c0 -8 6 -14 13 -14 7 0 10 6 7 14 -3 7 -8 13 -12 13 -4 0
-8 -6 -8 -13z"/>
<path d="M1866 1274 c-14 -43 -22 -74 -17 -68 13 14 55 134 49 140 -3 3 -18
-30 -32 -72z"/>
<path d="M1996 1314 c-4 -14 -5 -28 -3 -31 3 -2 8 8 11 23 4 14 5 28 3 31 -3
2 -8 -8 -11 -23z"/>
<path d="M596 1309 c9 -11 23 -19 30 -19 7 0 15 -8 18 -18 4 -10 20 -28 36
-40 16 -12 47 -48 69 -80 21 -32 56 -71 78 -87 l38 -29 -37 46 c-75 92 -168
219 -168 229 0 6 -4 8 -9 4 -5 -3 -12 -1 -15 4 -3 4 -17 9 -31 9 -25 0 -25 -1
-9 -19z"/>
<path d="M2350 1294 c0 -6 -16 -25 -35 -44 -19 -19 -35 -40 -35 -46 0 -13 -62
-70 -72 -66 -5 1 -8 -2 -8 -7 0 -5 -13 -23 -30 -39 -16 -17 -30 -36 -30 -44 1
-8 7 -6 18 7 10 11 42 41 73 67 53 44 137 163 125 175 -3 4 -6 2 -6 -3z"/>
<path d="M1240 1275 c0 -11 7 -42 15 -70 l15 -50 -6 54 c-5 57 -23 106 -24 66z"/>
<path d="M1620 1280 c0 -5 5 -10 11 -10 5 0 7 5 4 10 -3 6 -8 10 -11 10 -2 0
-4 -4 -4 -10z"/>
<path d="M1303 1245 c0 -22 2 -30 4 -17 2 12 2 30 0 40 -3 9 -5 -1 -4 -23z"/>
<path d="M1014 1232 c3 -19 25 -73 49 -120 24 -48 52 -108 62 -135 35 -92 25
-38 -15 87 -23 69 -46 124 -51 120 -5 -3 -19 14 -30 38 -20 41 -20 42 -15 10z"/>
<path d="M2430 1250 c-8 -6 -11 -10 -6 -10 4 0 -7 -19 -26 -42 -19 -24 -42
-57 -51 -75 -19 -35 -98 -136 -158 -201 -50 -52 -48 -73 3 -29 20 18 52 43 70
56 18 13 25 21 16 18 -26 -9 -23 0 22 59 22 29 40 56 40 60 0 4 20 33 43 63
65 82 84 124 47 101z"/>
<path d="M530 1240 c0 -5 4 -10 9 -10 6 0 13 5 16 10 3 6 -1 10 -9 10 -9 0
-16 -4 -16 -10z"/>
<path d="M1410 1244 c0 -3 12 -21 26 -40 24 -31 31 -34 68 -32 30 2 43 9 51
25 6 11 16 28 23 36 11 13 10 15 -8 10 -11 -3 -23 -9 -26 -14 -9 -15 -71 -10
-84 6 -12 14 -50 21 -50 9z"/>
<path d="M1160 1180 c5 -18 12 -35 16 -39 10 -9 -6 53 -17 63 -5 6 -5 -4 1
-24z"/>
<path d="M1303 1166 c0 -23 1 -25 4 -7 4 19 7 21 14 10 7 -12 9 -11 9 2 0 9
-6 19 -13 22 -9 3 -13 -5 -14 -27z"/>
<path d="M1813 1131 c-12 -33 -20 -61 -17 -61 9 0 45 93 42 108 -2 8 -13 -13
-25 -47z"/>
<path d="M1426 1127 c3 -10 9 -15 12 -12 3 3 0 11 -7 18 -10 9 -11 8 -5 -6z"/>
<path d="M696 1088 c21 -24 41 -44 46 -46 4 -2 8 -10 8 -18 0 -8 4 -14 10 -14
5 0 7 -6 4 -14 -3 -8 -1 -17 5 -21 7 -4 8 0 4 11 -5 13 -3 15 8 9 19 -12 -59
95 -85 117 -39 32 -39 18 0 -24z"/>
<path d="M1283 1001 c-2 -97 1 -132 11 -140 11 -9 13 7 11 89 0 55 2 100 7
100 4 0 6 6 4 13 -3 6 -7 24 -10 40 -13 58 -21 22 -23 -102z"/>
<path d="M1578 1123 c7 -3 16 -2 19 1 4 3 -2 6 -13 5 -11 0 -14 -3 -6 -6z"/>
<path d="M850 1093 c0 -6 8 -17 18 -24 16 -13 16 -13 2 6 -8 11 -16 22 -17 24
-2 2 -3 0 -3 -6z"/>
<path d="M2289 1083 c-13 -16 -12 -17 4 -4 9 7 17 15 17 17 0 8 -8 3 -21 -13z"/>
<path d="M629 1071 c7 -12 19 -25 27 -28 8 -3 21 -17 28 -32 29 -53 189 -201
204 -186 4 4 -15 27 -42 51 -27 25 -50 43 -53 41 -6 -7 -83 75 -78 83 3 5 1
11 -5 15 -6 4 -7 11 -4 17 4 6 2 8 -4 4 -5 -3 -12 -3 -14 2 -1 4 -18 18 -37
31 -33 24 -33 24 -22 2z"/>
<path d="M2131 984 c-45 -47 -81 -90 -81 -95 0 -20 19 -7 40 26 12 19 25 35
29 35 5 0 29 27 55 60 26 33 45 60 43 60 -3 0 -41 -39 -86 -86z"/>
<path d="M613 1023 c6 -18 15 -33 19 -33 14 0 9 17 -12 41 l-19 24 12 -32z"/>
<path d="M800 1042 c0 -4 31 -42 70 -83 53 -57 69 -69 70 -54 0 14 -25 44 -70
84 -38 34 -70 58 -70 53z"/>
<path d="M1435 1040 c3 -5 8 -10 11 -10 2 0 4 5 4 10 0 6 -5 10 -11 10 -5 0
-7 -4 -4 -10z"/>
<path d="M1140 1037 c0 -12 49 -97 65 -114 8 -8 15 -12 15 -8 0 9 -80 131 -80
122z"/>
<path d="M1656 1013 c-6 -14 -5 -15 5 -6 7 7 10 15 7 18 -3 3 -9 -2 -12 -12z"/>
<path d="M1026 1007 c3 -10 9 -15 12 -12 3 3 0 11 -7 18 -10 9 -11 8 -5 -6z"/>
<path d="M1751 991 c0 -16 3 -20 6 -11 3 8 10 20 14 26 5 7 3 11 -6 11 -10 0
-15 -10 -14 -26z"/>
<path d="M1972 946 c-18 -35 -32 -67 -32 -72 1 -5 17 22 36 60 19 37 34 70 32
72 -2 2 -18 -25 -36 -60z"/>
<path d="M2390 988 c-97 -42 -202 -114 -222 -152 -9 -18 -7 -17 18 5 45 40
165 115 206 128 38 12 61 32 36 30 -7 0 -24 -5 -38 -11z"/>
<path d="M1567 976 c-11 -8 -14 -17 -8 -20 5 -4 15 3 21 14 13 23 11 24 -13 6z"/>
<path d="M668 944 c20 -20 31 -33 25 -29 -7 3 -21 8 -30 10 -10 2 -29 7 -43
10 -24 6 -24 6 -6 -9 11 -9 32 -16 46 -16 44 0 209 -118 195 -140 -3 -4 1 -10
9 -13 10 -4 12 0 9 14 -6 22 -212 209 -230 209 -7 0 4 -16 25 -36z"/>
<path d="M799 959 c-12 -7 -11 -9 4 -9 9 0 17 -4 17 -10 0 -5 20 -23 45 -40
25 -17 45 -30 45 -28 0 2 -22 24 -48 50 -35 34 -52 44 -63 37z"/>
<path d="M1531 960 c-2 -3 -5 -21 -8 -40 -3 -26 -2 -32 7 -24 6 6 10 24 7 40
-2 16 -5 27 -6 24z"/>
<path d="M980 920 c-71 -76 -65 -295 9 -295 25 0 58 36 63 69 5 31 -16 28 -30
-4 -17 -37 -36 -38 -58 -5 -20 31 -14 137 11 184 30 59 77 60 79 2 1 -40 20
-34 24 7 7 73 -47 96 -98 42z"/>
<path d="M1475 928 c-6 -30 -75 -431 -75 -441 0 -19 20 -4 21 16 0 20 2 19 11
-6 20 -55 68 -12 93 83 33 123 28 250 -9 250 -9 0 -22 -12 -30 -27 -19 -35
-19 -34 -1 60 18 93 17 87 5 87 -5 0 -12 -10 -15 -22z m50 -238 c-9 -80 -23
-125 -45 -152 -17 -20 -21 -21 -30 -8 -21 33 0 173 35 226 17 27 18 27 32 8
10 -14 13 -34 8 -74z"/>
<path d="M1749 943 c0 -5 -15 -106 -32 -225 -22 -148 -29 -218 -21 -218 6 0
21 75 38 198 16 108 30 209 33 225 3 16 1 27 -6 27 -6 0 -11 -3 -12 -7z"/>
<path d="M1776 753 c-15 -109 -30 -209 -33 -222 -4 -17 -2 -22 8 -19 10 3 22
59 41 194 29 208 32 244 20 244 -5 0 -21 -89 -36 -197z"/>
<path d="M670 871 c0 -8 14 -21 75 -69 6 -5 17 -6 24 -4 9 3 11 0 6 -8 -5 -9
-4 -11 3 -6 20 12 14 20 -43 59 -59 39 -65 42 -65 28z"/>
<path d="M2077 850 c-12 -18 -15 -18 -20 -5 -9 22 -33 19 -53 -7 -11 -16 -15
-17 -11 -5 4 10 1 17 -7 17 -9 0 -18 -40 -30 -131 -9 -72 -15 -134 -12 -137 9
-9 23 41 30 108 9 77 29 130 50 130 19 0 19 -18 2 -123 -9 -54 -9 -76 -2 -74
6 2 18 44 26 94 15 87 30 123 53 123 10 0 4 -107 -9 -160 -6 -22 -5 -23 8 -10
16 16 43 174 33 190 -10 17 -43 11 -58 -10z"/>
<path d="M1133 835 c-49 -34 -82 -209 -49 -260 23 -35 52 -32 76 7 25 41 10
62 -20 27 -20 -24 -20 -24 -35 -5 -8 11 -15 35 -15 54 0 37 3 37 76 16 18 -5
22 0 27 33 11 62 8 97 -9 121 -18 26 -23 27 -51 7z m41 -51 c3 -9 6 -27 6 -41
0 -23 -3 -24 -32 -18 -48 10 -49 13 -33 46 17 31 49 39 59 13z"/>
<path d="M1266 818 c-10 -15 -14 -17 -10 -5 4 9 2 17 -3 17 -5 0 -21 -64 -36
-142 -30 -156 -31 -168 -19 -168 5 0 17 44 26 98 23 123 44 177 61 162 10 -8
14 -4 19 15 12 46 -11 60 -38 23z"/>
<path d="M1846 832 c-4 -7 -15 -71 -24 -141 -13 -108 -14 -132 -3 -145 19 -23
29 -20 51 17 15 24 20 27 20 12 0 -11 3 -15 9 -10 8 9 41 217 41 258 0 9 -4
17 -8 17 -5 0 -15 -47 -24 -105 -15 -97 -36 -155 -57 -155 -18 0 -19 30 -5
131 15 108 15 145 0 121z"/>
<path d="M1345 814 c-27 -28 -44 -69 -61 -155 -13 -67 -14 -92 -5 -125 19 -70
63 -67 96 5 19 44 12 69 -10 36 -30 -43 -36 -47 -51 -34 -8 7 -14 30 -14 58
l0 47 49 -6 c48 -6 49 -6 55 23 3 16 6 52 6 79 0 79 -27 109 -65 72z m39 -50
c3 -9 6 -29 6 -45 0 -27 -2 -29 -41 -29 -37 0 -40 2 -34 23 18 58 56 86 69 51z"/>
<path d="M1618 813 c-27 -31 -39 -62 -54 -139 -26 -139 -15 -200 37 -192 17 2
31 16 47 50 13 26 20 53 16 59 -4 8 -14 -1 -26 -25 -10 -20 -25 -36 -33 -36
-19 0 -35 31 -35 69 0 28 2 30 54 36 l55 7 7 54 c12 102 -25 166 -68 117z m42
-59 c19 -49 13 -62 -31 -66 -40 -4 -41 -3 -35 26 6 30 32 66 48 66 5 0 13 -12
18 -26z"/>
<path d="M2076 763 c-6 -14 -5 -15 5 -6 7 7 10 15 7 18 -3 3 -9 -2 -12 -12z"/>
<path d="M1010 590 c0 -5 4 -10 9 -10 6 0 13 5 16 10 3 6 -1 10 -9 10 -9 0
-16 -4 -16 -10z"/>
<path d="M171 1144 c0 -11 3 -14 6 -6 3 7 2 16 -1 19 -3 4 -6 -2 -5 -13z"/>
<path d="M270 901 c0 -5 5 -13 10 -16 6 -3 10 -2 10 4 0 5 -4 13 -10 16 -5 3
-10 2 -10 -4z"/>
<path d="M290 863 c0 -5 11 -21 25 -38 l25 -30 -21 38 c-20 36 -29 45 -29 30z"/>
<path d="M400 706 c0 -2 8 -10 18 -17 15 -13 16 -12 3 4 -13 16 -21 21 -21 13z"/>
<path d="M455 640 c10 -11 20 -20 23 -20 3 0 -3 9 -13 20 -10 11 -20 20 -23
20 -3 0 3 -9 13 -20z"/>
<path d="M460 528 c41 -45 50 -53 50 -45 0 2 -21 23 -47 47 l-48 45 45 -47z"/>
<path d="M2438 543 c7 -3 16 -2 19 1 4 3 -2 6 -13 5 -11 0 -14 -3 -6 -6z"/>
<path d="M2610 509 c0 -5 5 -7 10 -4 6 3 10 8 10 11 0 2 -4 4 -10 4 -5 0 -10
-5 -10 -11z"/>
</g>
</svg>
